<mxfile host="drawio-plugin" modified="2022-03-14T09:21:02.394Z" agent="5.0 (Macintosh; Intel Mac OS X 12_2_1) AppleWebKit/537.36 (KHTML, like Gecko) Chrome/89.0.4389.114 Safari/537.36" etag="85_c-krU2BPnoRMzuFUo" version="15.5.4" type="embed" pages="4"><diagram id="JfimFh7mEMIExOmBc01_" name="Page-1"><mxGraphModel dx="813" dy="678" grid="1" gridSize="10" guides="1" tooltips="1" connect="1" arrows="1" fold="1" page="1" pageScale="1" pageWidth="827" pageHeight="1169" math="0" shadow="0"><root><mxCell id="0"/><mxCell id="1" parent="0"/><mxCell id="IUJoZ5pGPnSCJCr6dnf7-3" value="" style="rounded=0;whiteSpace=wrap;html=1;fillColor=none;dashed=1;" parent="1" vertex="1"><mxGeometry x="49" y="40" width="730" height="460" as="geometry"/></mxCell><mxCell id="IUJoZ5pGPnSCJCr6dnf7-1" value="&lt;br&gt;Backend + UI" style="rounded=1;whiteSpace=wrap;html=1;fillColor=#dae8fc;strokeColor=#6c8ebf;" parent="1" vertex="1"><mxGeometry x="80" y="70" width="350" height="390" as="geometry"/></mxCell><mxCell id="IUJoZ5pGPnSCJCr6dnf7-2" value="Application&lt;br&gt;&amp;nbsp;Test Suit" style="rounded=1;whiteSpace=wrap;html=1;fillColor=#fff2cc;strokeColor=#d6b656;" parent="1" vertex="1"><mxGeometry x="550" y="87" width="120" height="350" as="geometry"/></mxCell><mxCell id="IUJoZ5pGPnSCJCr6dnf7-4" value="" style="endArrow=classic;html=1;rounded=0;exitX=0;exitY=0.25;exitDx=0;exitDy=0;entryX=1;entryY=0.269;entryDx=0;entryDy=0;entryPerimeter=0;" parent="1" source="IUJoZ5pGPnSCJCr6dnf7-2" target="IUJoZ5pGPnSCJCr6dnf7-1" edge="1"><mxGeometry width="50" height="50" relative="1" as="geometry"><mxPoint x="520" y="270" as="sourcePoint"/><mxPoint x="570" y="220" as="targetPoint"/></mxGeometry></mxCell><mxCell id="IUJoZ5pGPnSCJCr6dnf7-5" value="" style="endArrow=classic;html=1;rounded=0;entryX=0;entryY=0.75;entryDx=0;entryDy=0;exitX=1.006;exitY=0.715;exitDx=0;exitDy=0;exitPerimeter=0;" parent="1" source="IUJoZ5pGPnSCJCr6dnf7-1" target="IUJoZ5pGPnSCJCr6dnf7-2" edge="1"><mxGeometry width="50" height="50" relative="1" as="geometry"><mxPoint x="390" y="350" as="sourcePoint"/><mxPoint x="440" y="300" as="targetPoint"/></mxGeometry></mxCell><mxCell id="IUJoZ5pGPnSCJCr6dnf7-6" value="&lt;span&gt;Application&lt;/span&gt;" style="text;html=1;align=center;verticalAlign=middle;resizable=0;points=[];autosize=1;strokeColor=none;fillColor=none;" parent="1" vertex="1"><mxGeometry x="80" y="20" width="70" height="20" as="geometry"/></mxCell></root></mxGraphModel></diagram><diagram id="8Cyze_xLsHnJOdTTKiOY" name="Page-2"><mxGraphModel dx="813" dy="678" grid="1" gridSize="10" guides="1" tooltips="1" connect="1" arrows="1" fold="1" page="1" pageScale="1" pageWidth="827" pageHeight="1169" math="0" shadow="0"><root><mxCell id="MB2AbNiz28wUhlqvMuoS-0"/><mxCell id="MB2AbNiz28wUhlqvMuoS-1" parent="MB2AbNiz28wUhlqvMuoS-0"/><mxCell id="MB2AbNiz28wUhlqvMuoS-19" value="" style="rounded=0;whiteSpace=wrap;html=1;dashed=1;fillColor=none;" parent="MB2AbNiz28wUhlqvMuoS-1" vertex="1"><mxGeometry x="50" y="50" width="750" height="840" as="geometry"/></mxCell><mxCell id="MB2AbNiz28wUhlqvMuoS-10" style="edgeStyle=orthogonalEdgeStyle;rounded=0;orthogonalLoop=1;jettySize=auto;html=1;exitX=0;exitY=0.75;exitDx=0;exitDy=0;entryX=1;entryY=0.75;entryDx=0;entryDy=0;" parent="MB2AbNiz28wUhlqvMuoS-1" source="MB2AbNiz28wUhlqvMuoS-3" target="MB2AbNiz28wUhlqvMuoS-8" edge="1"><mxGeometry relative="1" as="geometry"/></mxCell><mxCell id="MB2AbNiz28wUhlqvMuoS-3" value="Desktop&lt;br&gt;&amp;nbsp;UI" style="rounded=1;whiteSpace=wrap;html=1;fillColor=#dae8fc;strokeColor=#6c8ebf;" parent="MB2AbNiz28wUhlqvMuoS-1" vertex="1"><mxGeometry x="441" y="270" width="80" height="390" as="geometry"/></mxCell><mxCell id="MB2AbNiz28wUhlqvMuoS-4" value="Desktop &lt;br&gt;UI Test Suit" style="rounded=1;whiteSpace=wrap;html=1;fillColor=#fff2cc;strokeColor=#d6b656;" parent="MB2AbNiz28wUhlqvMuoS-1" vertex="1"><mxGeometry x="611" y="287" width="120" height="350" as="geometry"/></mxCell><mxCell id="MB2AbNiz28wUhlqvMuoS-5" value="" style="endArrow=classic;html=1;rounded=0;exitX=0;exitY=0.25;exitDx=0;exitDy=0;entryX=1;entryY=0.269;entryDx=0;entryDy=0;entryPerimeter=0;" parent="MB2AbNiz28wUhlqvMuoS-1" source="MB2AbNiz28wUhlqvMuoS-4" target="MB2AbNiz28wUhlqvMuoS-3" edge="1"><mxGeometry width="50" height="50" relative="1" as="geometry"><mxPoint x="531" y="460" as="sourcePoint"/><mxPoint x="581" y="410" as="targetPoint"/></mxGeometry></mxCell><mxCell id="MB2AbNiz28wUhlqvMuoS-6" value="" style="endArrow=classic;html=1;rounded=0;entryX=0;entryY=0.75;entryDx=0;entryDy=0;exitX=1.006;exitY=0.715;exitDx=0;exitDy=0;exitPerimeter=0;" parent="MB2AbNiz28wUhlqvMuoS-1" source="MB2AbNiz28wUhlqvMuoS-3" target="MB2AbNiz28wUhlqvMuoS-4" edge="1"><mxGeometry width="50" height="50" relative="1" as="geometry"><mxPoint x="401" y="540" as="sourcePoint"/><mxPoint x="451" y="490" as="targetPoint"/></mxGeometry></mxCell><mxCell id="MB2AbNiz28wUhlqvMuoS-7" value="&lt;span&gt;Application&lt;/span&gt;" style="text;html=1;align=center;verticalAlign=middle;resizable=0;points=[];autosize=1;strokeColor=none;fillColor=none;" parent="MB2AbNiz28wUhlqvMuoS-1" vertex="1"><mxGeometry x="60" y="10" width="70" height="20" as="geometry"/></mxCell><mxCell id="MB2AbNiz28wUhlqvMuoS-9" style="edgeStyle=orthogonalEdgeStyle;rounded=0;orthogonalLoop=1;jettySize=auto;html=1;exitX=1;exitY=0.25;exitDx=0;exitDy=0;entryX=0;entryY=0.25;entryDx=0;entryDy=0;" parent="MB2AbNiz28wUhlqvMuoS-1" source="MB2AbNiz28wUhlqvMuoS-8" target="MB2AbNiz28wUhlqvMuoS-3" edge="1"><mxGeometry relative="1" as="geometry"/></mxCell><mxCell id="MB2AbNiz28wUhlqvMuoS-8" value="Backend" style="rounded=1;whiteSpace=wrap;html=1;fillColor=#dae8fc;strokeColor=#6c8ebf;" parent="MB2AbNiz28wUhlqvMuoS-1" vertex="1"><mxGeometry x="111" y="270" width="270" height="390" as="geometry"/></mxCell><mxCell id="MB2AbNiz28wUhlqvMuoS-12" style="edgeStyle=orthogonalEdgeStyle;rounded=0;orthogonalLoop=1;jettySize=auto;html=1;exitX=0.75;exitY=0;exitDx=0;exitDy=0;entryX=0.659;entryY=1.003;entryDx=0;entryDy=0;entryPerimeter=0;" parent="MB2AbNiz28wUhlqvMuoS-1" source="MB2AbNiz28wUhlqvMuoS-11" target="MB2AbNiz28wUhlqvMuoS-8" edge="1"><mxGeometry relative="1" as="geometry"/></mxCell><mxCell id="MB2AbNiz28wUhlqvMuoS-14" style="edgeStyle=orthogonalEdgeStyle;rounded=0;orthogonalLoop=1;jettySize=auto;html=1;exitX=0.25;exitY=0;exitDx=0;exitDy=0;entryX=0.326;entryY=1.005;entryDx=0;entryDy=0;entryPerimeter=0;endArrow=none;endFill=0;startArrow=classic;startFill=1;" parent="MB2AbNiz28wUhlqvMuoS-1" source="MB2AbNiz28wUhlqvMuoS-11" target="MB2AbNiz28wUhlqvMuoS-8" edge="1"><mxGeometry relative="1" as="geometry"/></mxCell><mxCell id="MB2AbNiz28wUhlqvMuoS-17" style="edgeStyle=orthogonalEdgeStyle;rounded=0;orthogonalLoop=1;jettySize=auto;html=1;exitX=1;exitY=0.25;exitDx=0;exitDy=0;entryX=-0.025;entryY=0.438;entryDx=0;entryDy=0;entryPerimeter=0;startArrow=classic;startFill=1;endArrow=none;endFill=0;" parent="MB2AbNiz28wUhlqvMuoS-1" source="MB2AbNiz28wUhlqvMuoS-11" target="MB2AbNiz28wUhlqvMuoS-16" edge="1"><mxGeometry relative="1" as="geometry"/></mxCell><mxCell id="MB2AbNiz28wUhlqvMuoS-18" style="edgeStyle=orthogonalEdgeStyle;rounded=0;orthogonalLoop=1;jettySize=auto;html=1;exitX=1;exitY=0.75;exitDx=0;exitDy=0;entryX=-0.008;entryY=0.688;entryDx=0;entryDy=0;entryPerimeter=0;startArrow=none;startFill=0;endArrow=classic;endFill=1;" parent="MB2AbNiz28wUhlqvMuoS-1" source="MB2AbNiz28wUhlqvMuoS-11" target="MB2AbNiz28wUhlqvMuoS-16" edge="1"><mxGeometry relative="1" as="geometry"/></mxCell><mxCell id="MB2AbNiz28wUhlqvMuoS-11" value="Mobile&lt;br&gt;&amp;nbsp;UI" style="rounded=1;whiteSpace=wrap;html=1;fillColor=#dae8fc;strokeColor=#6c8ebf;" parent="MB2AbNiz28wUhlqvMuoS-1" vertex="1"><mxGeometry x="154" y="740" width="180" height="80" as="geometry"/></mxCell><mxCell id="MB2AbNiz28wUhlqvMuoS-16" value="Mobile&lt;br&gt;UI Test Suit" style="rounded=1;whiteSpace=wrap;html=1;fillColor=#fff2cc;strokeColor=#d6b656;" parent="MB2AbNiz28wUhlqvMuoS-1" vertex="1"><mxGeometry x="611" y="690" width="120" height="160" as="geometry"/></mxCell><mxCell id="qAgNvAdoNId-HlaYuvS2-1" style="edgeStyle=orthogonalEdgeStyle;rounded=0;orthogonalLoop=1;jettySize=auto;html=1;exitX=0.25;exitY=1;exitDx=0;exitDy=0;entryX=0.381;entryY=0;entryDx=0;entryDy=0;entryPerimeter=0;startArrow=classic;startFill=1;endArrow=none;endFill=0;" parent="MB2AbNiz28wUhlqvMuoS-1" source="qAgNvAdoNId-HlaYuvS2-0" target="MB2AbNiz28wUhlqvMuoS-8" edge="1"><mxGeometry relative="1" as="geometry"/></mxCell><mxCell id="qAgNvAdoNId-HlaYuvS2-2" style="edgeStyle=orthogonalEdgeStyle;rounded=0;orthogonalLoop=1;jettySize=auto;html=1;exitX=0.75;exitY=1;exitDx=0;exitDy=0;entryX=0.604;entryY=0;entryDx=0;entryDy=0;entryPerimeter=0;startArrow=none;startFill=0;endArrow=classic;endFill=1;" parent="MB2AbNiz28wUhlqvMuoS-1" source="qAgNvAdoNId-HlaYuvS2-0" target="MB2AbNiz28wUhlqvMuoS-8" edge="1"><mxGeometry relative="1" as="geometry"/></mxCell><mxCell id="qAgNvAdoNId-HlaYuvS2-0" value="Backend&amp;nbsp;Test Suit" style="rounded=1;whiteSpace=wrap;html=1;fillColor=#fff2cc;strokeColor=#d6b656;" parent="MB2AbNiz28wUhlqvMuoS-1" vertex="1"><mxGeometry x="184" y="80" width="120" height="90" as="geometry"/></mxCell></root></mxGraphModel></diagram><diagram id="wTOw47pqorC72BpbY5FD" name="Page-3"><mxGraphModel dx="813" dy="678" grid="1" gridSize="10" guides="1" tooltips="1" connect="1" arrows="1" fold="1" page="1" pageScale="1" pageWidth="827" pageHeight="1169" math="0" shadow="0"><root><mxCell id="54Q_KfdueBYyG_BytX7t-0"/><mxCell id="54Q_KfdueBYyG_BytX7t-1" parent="54Q_KfdueBYyG_BytX7t-0"/><mxCell id="54Q_KfdueBYyG_BytX7t-15" value="" style="rounded=0;whiteSpace=wrap;html=1;dashed=1;fillColor=none;" parent="54Q_KfdueBYyG_BytX7t-1" vertex="1"><mxGeometry x="50" y="60" width="735" height="830" as="geometry"/></mxCell><mxCell id="54Q_KfdueBYyG_BytX7t-2" style="edgeStyle=orthogonalEdgeStyle;rounded=0;orthogonalLoop=1;jettySize=auto;html=1;exitX=0;exitY=0.75;exitDx=0;exitDy=0;entryX=1;entryY=0.75;entryDx=0;entryDy=0;" parent="54Q_KfdueBYyG_BytX7t-1" source="54Q_KfdueBYyG_BytX7t-3" target="54Q_KfdueBYyG_BytX7t-9" edge="1"><mxGeometry relative="1" as="geometry"/></mxCell><mxCell id="54Q_KfdueBYyG_BytX7t-3" value="Desktop&lt;br&gt;&amp;nbsp;UI" style="rounded=1;whiteSpace=wrap;html=1;fillColor=#dae8fc;strokeColor=#6c8ebf;" parent="54Q_KfdueBYyG_BytX7t-1" vertex="1"><mxGeometry x="430" y="280" width="80" height="390" as="geometry"/></mxCell><mxCell id="54Q_KfdueBYyG_BytX7t-4" value="Desktop &lt;br&gt;UI Test Suit" style="rounded=1;whiteSpace=wrap;html=1;fillColor=#fff2cc;strokeColor=#d6b656;" parent="54Q_KfdueBYyG_BytX7t-1" vertex="1"><mxGeometry x="600" y="297" width="120" height="350" as="geometry"/></mxCell><mxCell id="54Q_KfdueBYyG_BytX7t-5" value="" style="endArrow=classic;html=1;rounded=0;exitX=0;exitY=0.25;exitDx=0;exitDy=0;entryX=1;entryY=0.269;entryDx=0;entryDy=0;entryPerimeter=0;" parent="54Q_KfdueBYyG_BytX7t-1" source="54Q_KfdueBYyG_BytX7t-4" target="54Q_KfdueBYyG_BytX7t-3" edge="1"><mxGeometry width="50" height="50" relative="1" as="geometry"><mxPoint x="520" y="470" as="sourcePoint"/><mxPoint x="570" y="420" as="targetPoint"/></mxGeometry></mxCell><mxCell id="54Q_KfdueBYyG_BytX7t-6" value="" style="endArrow=classic;html=1;rounded=0;entryX=0;entryY=0.75;entryDx=0;entryDy=0;exitX=1.006;exitY=0.715;exitDx=0;exitDy=0;exitPerimeter=0;" parent="54Q_KfdueBYyG_BytX7t-1" source="54Q_KfdueBYyG_BytX7t-3" target="54Q_KfdueBYyG_BytX7t-4" edge="1"><mxGeometry width="50" height="50" relative="1" as="geometry"><mxPoint x="390" y="550" as="sourcePoint"/><mxPoint x="440" y="500" as="targetPoint"/></mxGeometry></mxCell><mxCell id="54Q_KfdueBYyG_BytX7t-7" value="&lt;span&gt;Application&lt;/span&gt;" style="text;html=1;align=center;verticalAlign=middle;resizable=0;points=[];autosize=1;strokeColor=none;fillColor=none;" parent="54Q_KfdueBYyG_BytX7t-1" vertex="1"><mxGeometry x="51" y="20" width="70" height="20" as="geometry"/></mxCell><mxCell id="54Q_KfdueBYyG_BytX7t-8" style="edgeStyle=orthogonalEdgeStyle;rounded=0;orthogonalLoop=1;jettySize=auto;html=1;exitX=1;exitY=0.25;exitDx=0;exitDy=0;entryX=0;entryY=0.25;entryDx=0;entryDy=0;" parent="54Q_KfdueBYyG_BytX7t-1" source="54Q_KfdueBYyG_BytX7t-9" target="54Q_KfdueBYyG_BytX7t-3" edge="1"><mxGeometry relative="1" as="geometry"/></mxCell><mxCell id="54Q_KfdueBYyG_BytX7t-9" value="" style="rounded=1;whiteSpace=wrap;html=1;fillColor=none;strokeColor=#6c8ebf;" parent="54Q_KfdueBYyG_BytX7t-1" vertex="1"><mxGeometry x="100" y="280" width="270" height="390" as="geometry"/></mxCell><mxCell id="54Q_KfdueBYyG_BytX7t-10" style="edgeStyle=orthogonalEdgeStyle;rounded=0;orthogonalLoop=1;jettySize=auto;html=1;exitX=0.75;exitY=0;exitDx=0;exitDy=0;entryX=0.659;entryY=1.003;entryDx=0;entryDy=0;entryPerimeter=0;" parent="54Q_KfdueBYyG_BytX7t-1" source="54Q_KfdueBYyG_BytX7t-14" target="54Q_KfdueBYyG_BytX7t-9" edge="1"><mxGeometry relative="1" as="geometry"/></mxCell><mxCell id="54Q_KfdueBYyG_BytX7t-11" style="edgeStyle=orthogonalEdgeStyle;rounded=0;orthogonalLoop=1;jettySize=auto;html=1;exitX=0.25;exitY=0;exitDx=0;exitDy=0;entryX=0.326;entryY=1.005;entryDx=0;entryDy=0;entryPerimeter=0;endArrow=none;endFill=0;startArrow=classic;startFill=1;" parent="54Q_KfdueBYyG_BytX7t-1" source="54Q_KfdueBYyG_BytX7t-14" target="54Q_KfdueBYyG_BytX7t-9" edge="1"><mxGeometry relative="1" as="geometry"/></mxCell><mxCell id="54Q_KfdueBYyG_BytX7t-12" style="edgeStyle=orthogonalEdgeStyle;rounded=0;orthogonalLoop=1;jettySize=auto;html=1;exitX=1;exitY=0.25;exitDx=0;exitDy=0;entryX=-0.025;entryY=0.438;entryDx=0;entryDy=0;entryPerimeter=0;startArrow=classic;startFill=1;endArrow=none;endFill=0;" parent="54Q_KfdueBYyG_BytX7t-1" source="54Q_KfdueBYyG_BytX7t-14" target="54Q_KfdueBYyG_BytX7t-16" edge="1"><mxGeometry relative="1" as="geometry"/></mxCell><mxCell id="54Q_KfdueBYyG_BytX7t-13" style="edgeStyle=orthogonalEdgeStyle;rounded=0;orthogonalLoop=1;jettySize=auto;html=1;exitX=1;exitY=0.75;exitDx=0;exitDy=0;entryX=-0.008;entryY=0.688;entryDx=0;entryDy=0;entryPerimeter=0;startArrow=none;startFill=0;endArrow=classic;endFill=1;" parent="54Q_KfdueBYyG_BytX7t-1" source="54Q_KfdueBYyG_BytX7t-14" target="54Q_KfdueBYyG_BytX7t-16" edge="1"><mxGeometry relative="1" as="geometry"/></mxCell><mxCell id="54Q_KfdueBYyG_BytX7t-14" value="Mobile&lt;br&gt;&amp;nbsp;UI" style="rounded=1;whiteSpace=wrap;html=1;fillColor=#dae8fc;strokeColor=#6c8ebf;" parent="54Q_KfdueBYyG_BytX7t-1" vertex="1"><mxGeometry x="143" y="750" width="180" height="80" as="geometry"/></mxCell><mxCell id="54Q_KfdueBYyG_BytX7t-16" value="Mobile&lt;br&gt;UI Test Suit" style="rounded=1;whiteSpace=wrap;html=1;fillColor=#fff2cc;strokeColor=#d6b656;" parent="54Q_KfdueBYyG_BytX7t-1" vertex="1"><mxGeometry x="600" y="700" width="120" height="160" as="geometry"/></mxCell><mxCell id="54Q_KfdueBYyG_BytX7t-17" value="&lt;span&gt;Backend&lt;/span&gt;" style="text;html=1;align=center;verticalAlign=middle;resizable=0;points=[];autosize=1;strokeColor=none;fillColor=none;" parent="54Q_KfdueBYyG_BytX7t-1" vertex="1"><mxGeometry x="125" y="260" width="60" height="20" as="geometry"/></mxCell><mxCell id="54Q_KfdueBYyG_BytX7t-18" value="Service 1" style="rounded=1;whiteSpace=wrap;html=1;fillColor=none;" parent="54Q_KfdueBYyG_BytX7t-1" vertex="1"><mxGeometry x="143" y="320" width="120" height="60" as="geometry"/></mxCell><mxCell id="54Q_KfdueBYyG_BytX7t-19" value="Service 2" style="rounded=1;whiteSpace=wrap;html=1;fillColor=none;" parent="54Q_KfdueBYyG_BytX7t-1" vertex="1"><mxGeometry x="143" y="400" width="120" height="60" as="geometry"/></mxCell><mxCell id="54Q_KfdueBYyG_BytX7t-20" value="Service 3" style="rounded=1;whiteSpace=wrap;html=1;fillColor=none;" parent="54Q_KfdueBYyG_BytX7t-1" vertex="1"><mxGeometry x="143" y="480" width="120" height="60" as="geometry"/></mxCell><mxCell id="54Q_KfdueBYyG_BytX7t-21" value="Service 2" style="rounded=1;whiteSpace=wrap;html=1;fillColor=none;" parent="54Q_KfdueBYyG_BytX7t-1" vertex="1"><mxGeometry x="143" y="560" width="120" height="60" as="geometry"/></mxCell><mxCell id="WFOjqgn_QrdS5HKiJoAk-1" style="edgeStyle=orthogonalEdgeStyle;rounded=0;orthogonalLoop=1;jettySize=auto;html=1;exitX=0.25;exitY=1;exitDx=0;exitDy=0;entryX=0.381;entryY=-0.005;entryDx=0;entryDy=0;entryPerimeter=0;startArrow=none;startFill=0;endArrow=classic;endFill=1;" parent="54Q_KfdueBYyG_BytX7t-1" source="WFOjqgn_QrdS5HKiJoAk-0" target="54Q_KfdueBYyG_BytX7t-9" edge="1"><mxGeometry relative="1" as="geometry"/></mxCell><mxCell id="WFOjqgn_QrdS5HKiJoAk-2" style="edgeStyle=orthogonalEdgeStyle;rounded=0;orthogonalLoop=1;jettySize=auto;html=1;exitX=0.75;exitY=1;exitDx=0;exitDy=0;entryX=0.604;entryY=0;entryDx=0;entryDy=0;entryPerimeter=0;startArrow=classic;startFill=1;endArrow=none;endFill=0;" parent="54Q_KfdueBYyG_BytX7t-1" source="WFOjqgn_QrdS5HKiJoAk-0" target="54Q_KfdueBYyG_BytX7t-9" edge="1"><mxGeometry relative="1" as="geometry"/></mxCell><mxCell id="WFOjqgn_QrdS5HKiJoAk-0" value="Backend&amp;nbsp;Test Suit" style="rounded=1;whiteSpace=wrap;html=1;fillColor=#fff2cc;strokeColor=#d6b656;" parent="54Q_KfdueBYyG_BytX7t-1" vertex="1"><mxGeometry x="173" y="100" width="120" height="90" as="geometry"/></mxCell></root></mxGraphModel></diagram><diagram id="1GOrdvVSDbyY6i4VCAgU" name="Page-4"><mxGraphModel dx="813" dy="678" grid="1" gridSize="10" guides="1" tooltips="1" connect="1" arrows="1" fold="1" page="1" pageScale="1" pageWidth="827" pageHeight="1169" math="0" shadow="0"><root><mxCell id="D_ovLG0-Ebi4o6OiThqK-0"/><mxCell id="D_ovLG0-Ebi4o6OiThqK-1" parent="D_ovLG0-Ebi4o6OiThqK-0"/><mxCell id="D_ovLG0-Ebi4o6OiThqK-2" value="" style="rounded=1;whiteSpace=wrap;html=1;fillColor=none;strokeColor=#6c8ebf;" parent="D_ovLG0-Ebi4o6OiThqK-1" vertex="1"><mxGeometry x="63" y="230" width="351" height="390" as="geometry"/></mxCell><mxCell id="vZkIz7gZQIfKzsY9GhRH-4" style="edgeStyle=orthogonalEdgeStyle;rounded=0;orthogonalLoop=1;jettySize=auto;html=1;exitX=1;exitY=0.25;exitDx=0;exitDy=0;entryX=0;entryY=0.25;entryDx=0;entryDy=0;startArrow=classic;startFill=1;endArrow=none;endFill=0;" parent="D_ovLG0-Ebi4o6OiThqK-1" source="D_ovLG0-Ebi4o6OiThqK-3" target="vZkIz7gZQIfKzsY9GhRH-0" edge="1"><mxGeometry relative="1" as="geometry"/></mxCell><mxCell id="D_ovLG0-Ebi4o6OiThqK-3" value="Service 1" style="rounded=1;whiteSpace=wrap;html=1;fillColor=none;" parent="D_ovLG0-Ebi4o6OiThqK-1" vertex="1"><mxGeometry x="106" y="270" width="120" height="60" as="geometry"/></mxCell><mxCell id="vZkIz7gZQIfKzsY9GhRH-6" style="edgeStyle=orthogonalEdgeStyle;rounded=0;orthogonalLoop=1;jettySize=auto;html=1;exitX=1;exitY=0.25;exitDx=0;exitDy=0;entryX=0;entryY=0.25;entryDx=0;entryDy=0;startArrow=classic;startFill=1;endArrow=none;endFill=0;" parent="D_ovLG0-Ebi4o6OiThqK-1" source="D_ovLG0-Ebi4o6OiThqK-4" target="vZkIz7gZQIfKzsY9GhRH-1" edge="1"><mxGeometry relative="1" as="geometry"/></mxCell><mxCell id="D_ovLG0-Ebi4o6OiThqK-4" value="Service 2" style="rounded=1;whiteSpace=wrap;html=1;fillColor=none;" parent="D_ovLG0-Ebi4o6OiThqK-1" vertex="1"><mxGeometry x="106" y="350" width="120" height="60" as="geometry"/></mxCell><mxCell id="vZkIz7gZQIfKzsY9GhRH-8" style="edgeStyle=orthogonalEdgeStyle;rounded=0;orthogonalLoop=1;jettySize=auto;html=1;exitX=1;exitY=0.25;exitDx=0;exitDy=0;entryX=0;entryY=0.25;entryDx=0;entryDy=0;startArrow=classic;startFill=1;endArrow=none;endFill=0;" parent="D_ovLG0-Ebi4o6OiThqK-1" source="D_ovLG0-Ebi4o6OiThqK-5" target="vZkIz7gZQIfKzsY9GhRH-2" edge="1"><mxGeometry relative="1" as="geometry"/></mxCell><mxCell id="D_ovLG0-Ebi4o6OiThqK-5" value="Service 3" style="rounded=1;whiteSpace=wrap;html=1;fillColor=none;" parent="D_ovLG0-Ebi4o6OiThqK-1" vertex="1"><mxGeometry x="106" y="430" width="120" height="60" as="geometry"/></mxCell><mxCell id="vZkIz7gZQIfKzsY9GhRH-10" style="edgeStyle=orthogonalEdgeStyle;rounded=0;orthogonalLoop=1;jettySize=auto;html=1;exitX=1;exitY=0.25;exitDx=0;exitDy=0;entryX=0;entryY=0.25;entryDx=0;entryDy=0;startArrow=classic;startFill=1;endArrow=none;endFill=0;" parent="D_ovLG0-Ebi4o6OiThqK-1" source="D_ovLG0-Ebi4o6OiThqK-6" target="vZkIz7gZQIfKzsY9GhRH-3" edge="1"><mxGeometry relative="1" as="geometry"/></mxCell><mxCell id="D_ovLG0-Ebi4o6OiThqK-6" value="Service 2" style="rounded=1;whiteSpace=wrap;html=1;fillColor=none;" parent="D_ovLG0-Ebi4o6OiThqK-1" vertex="1"><mxGeometry x="106" y="510" width="120" height="60" as="geometry"/></mxCell><mxCell id="vZkIz7gZQIfKzsY9GhRH-5" style="edgeStyle=orthogonalEdgeStyle;rounded=0;orthogonalLoop=1;jettySize=auto;html=1;exitX=0;exitY=0.75;exitDx=0;exitDy=0;entryX=1;entryY=0.75;entryDx=0;entryDy=0;startArrow=classic;startFill=1;endArrow=none;endFill=0;" parent="D_ovLG0-Ebi4o6OiThqK-1" source="vZkIz7gZQIfKzsY9GhRH-0" target="D_ovLG0-Ebi4o6OiThqK-3" edge="1"><mxGeometry relative="1" as="geometry"/></mxCell><mxCell id="vZkIz7gZQIfKzsY9GhRH-0" value="Service Test Suit" style="rounded=1;whiteSpace=wrap;html=1;fillColor=#fff2cc;strokeColor=#d6b656;" parent="D_ovLG0-Ebi4o6OiThqK-1" vertex="1"><mxGeometry x="264" y="270" width="120" height="60" as="geometry"/></mxCell><mxCell id="vZkIz7gZQIfKzsY9GhRH-7" style="edgeStyle=orthogonalEdgeStyle;rounded=0;orthogonalLoop=1;jettySize=auto;html=1;exitX=0;exitY=0.75;exitDx=0;exitDy=0;entryX=1;entryY=0.75;entryDx=0;entryDy=0;startArrow=classic;startFill=1;endArrow=none;endFill=0;" parent="D_ovLG0-Ebi4o6OiThqK-1" source="vZkIz7gZQIfKzsY9GhRH-1" target="D_ovLG0-Ebi4o6OiThqK-4" edge="1"><mxGeometry relative="1" as="geometry"/></mxCell><mxCell id="vZkIz7gZQIfKzsY9GhRH-1" value="Service Test Suit" style="rounded=1;whiteSpace=wrap;html=1;fillColor=#fff2cc;strokeColor=#d6b656;" parent="D_ovLG0-Ebi4o6OiThqK-1" vertex="1"><mxGeometry x="264" y="350" width="120" height="60" as="geometry"/></mxCell><mxCell id="vZkIz7gZQIfKzsY9GhRH-9" style="edgeStyle=orthogonalEdgeStyle;rounded=0;orthogonalLoop=1;jettySize=auto;html=1;exitX=0;exitY=0.75;exitDx=0;exitDy=0;entryX=1;entryY=0.75;entryDx=0;entryDy=0;startArrow=classic;startFill=1;endArrow=none;endFill=0;" parent="D_ovLG0-Ebi4o6OiThqK-1" source="vZkIz7gZQIfKzsY9GhRH-2" target="D_ovLG0-Ebi4o6OiThqK-5" edge="1"><mxGeometry relative="1" as="geometry"/></mxCell><mxCell id="vZkIz7gZQIfKzsY9GhRH-2" value="Service Test Suit" style="rounded=1;whiteSpace=wrap;html=1;fillColor=#fff2cc;strokeColor=#d6b656;" parent="D_ovLG0-Ebi4o6OiThqK-1" vertex="1"><mxGeometry x="264" y="430" width="120" height="60" as="geometry"/></mxCell><mxCell id="vZkIz7gZQIfKzsY9GhRH-11" style="edgeStyle=orthogonalEdgeStyle;rounded=0;orthogonalLoop=1;jettySize=auto;html=1;exitX=0;exitY=0.75;exitDx=0;exitDy=0;entryX=1;entryY=0.75;entryDx=0;entryDy=0;startArrow=classic;startFill=1;endArrow=none;endFill=0;" parent="D_ovLG0-Ebi4o6OiThqK-1" source="vZkIz7gZQIfKzsY9GhRH-3" target="D_ovLG0-Ebi4o6OiThqK-6" edge="1"><mxGeometry relative="1" as="geometry"/></mxCell><mxCell id="vZkIz7gZQIfKzsY9GhRH-3" value="Service Test Suit" style="rounded=1;whiteSpace=wrap;html=1;fillColor=#fff2cc;strokeColor=#d6b656;" parent="D_ovLG0-Ebi4o6OiThqK-1" vertex="1"><mxGeometry x="264" y="510" width="120" height="60" as="geometry"/></mxCell><mxCell id="V7IBfdrwz9NUrTy8Z0Zf-1" style="edgeStyle=orthogonalEdgeStyle;rounded=0;orthogonalLoop=1;jettySize=auto;html=1;exitX=0.25;exitY=1;exitDx=0;exitDy=0;entryX=0.413;entryY=0;entryDx=0;entryDy=0;entryPerimeter=0;startArrow=classic;startFill=1;endArrow=none;endFill=0;" parent="D_ovLG0-Ebi4o6OiThqK-1" source="V7IBfdrwz9NUrTy8Z0Zf-0" target="D_ovLG0-Ebi4o6OiThqK-2" edge="1"><mxGeometry relative="1" as="geometry"/></mxCell><mxCell id="V7IBfdrwz9NUrTy8Z0Zf-2" style="edgeStyle=orthogonalEdgeStyle;rounded=0;orthogonalLoop=1;jettySize=auto;html=1;exitX=0.75;exitY=1;exitDx=0;exitDy=0;entryX=0.587;entryY=0.003;entryDx=0;entryDy=0;entryPerimeter=0;startArrow=none;startFill=0;endArrow=classic;endFill=1;" parent="D_ovLG0-Ebi4o6OiThqK-1" source="V7IBfdrwz9NUrTy8Z0Zf-0" target="D_ovLG0-Ebi4o6OiThqK-2" edge="1"><mxGeometry relative="1" as="geometry"/></mxCell><mxCell id="V7IBfdrwz9NUrTy8Z0Zf-0" value="Journey Test Suit" style="rounded=1;whiteSpace=wrap;html=1;fillColor=#fff2cc;strokeColor=#d6b656;" parent="D_ovLG0-Ebi4o6OiThqK-1" vertex="1"><mxGeometry x="178.5" y="50" width="120" height="90" as="geometry"/></mxCell></root></mxGraphModel></diagram></mxfile>